<svg width="96" height="96" viewBox="0 0 96 96" fill="none" xmlns="http://www.w3.org/2000/svg">
<path opacity="0.1" fill-rule="evenodd" clip-rule="evenodd" d="M48 96C74.5097 96 96 74.5097 96 48C96 21.4903 74.5097 0 48 0C21.4903 0 0 21.4903 0 48C0 74.5097 21.4903 96 48 96Z" fill="#F04037"/>
<path fill-rule="evenodd" clip-rule="evenodd" d="M57.3327 60H38.666C36.4569 60 34.666 58.2091 34.666 56V36H53.3327H55.9993V42.6667H61.3327V44V56C61.3327 58.2091 59.5418 60 57.3327 60ZM53.5603 57.3333C53.4129 56.9163 53.3327 56.4675 53.3327 56V38.6667H37.3327V56C37.3327 56.7364 37.9296 57.3333 38.666 57.3333H53.5603ZM55.9993 45.3333V56C55.9993 56.7364 56.5963 57.3333 57.3327 57.3333C58.0691 57.3333 58.666 56.7364 58.666 56V45.3333H55.9993ZM45.3327 41.3333V46.6667H39.9993V41.3333H45.3327ZM50.666 42.6667V45.3333H46.666V42.6667H50.666ZM50.666 48V50.6667H39.9993V48H50.666ZM50.666 52V54.6667H39.9993V52H50.666Z" fill="#F04037"/>
</svg>
