<svg width="204" height="25" viewBox="0 0 204 25" fill="none" xmlns="http://www.w3.org/2000/svg">
<path d="M0.250997 24V1.6H5.115L12.251 15.808L19.291 1.6H24.155V24H20.059V8.544L13.819 20.8H10.587L4.347 8.544V24H0.250997ZM33.177 24.384C31.8117 24.384 30.6917 24.1707 29.817 23.744C28.9423 23.296 28.2917 22.7093 27.865 21.984C27.4383 21.2587 27.225 20.4587 27.225 19.584C27.225 18.112 27.801 16.9173 28.953 16C30.105 15.0827 31.833 14.624 34.137 14.624H38.169V14.24C38.169 13.152 37.8597 12.352 37.241 11.84C36.6223 11.328 35.8543 11.072 34.937 11.072C34.105 11.072 33.3797 11.2747 32.761 11.68C32.1423 12.064 31.7583 12.64 31.609 13.408H27.609C27.7157 12.256 28.0997 11.2533 28.761 10.4C29.4437 9.54667 30.3183 8.896 31.385 8.448C32.4517 7.97867 33.6463 7.744 34.969 7.744C37.2303 7.744 39.0117 8.30933 40.313 9.44C41.6143 10.5707 42.265 12.1707 42.265 14.24V24H38.777L38.393 21.44C37.9237 22.2933 37.2623 22.9973 36.409 23.552C35.577 24.1067 34.4997 24.384 33.177 24.384ZM34.105 21.184C35.2783 21.184 36.185 20.8 36.825 20.032C37.4863 19.264 37.9023 18.3147 38.073 17.184H34.585C33.497 17.184 32.7183 17.3867 32.249 17.792C31.7797 18.176 31.545 18.656 31.545 19.232C31.545 19.8507 31.7797 20.3307 32.249 20.672C32.7183 21.0133 33.337 21.184 34.105 21.184ZM53.2497 24.384C51.6284 24.384 50.1991 24.032 48.9617 23.328C47.7244 22.624 46.7431 21.6427 46.0177 20.384C45.3137 19.1253 44.9617 17.6853 44.9617 16.064C44.9617 14.4427 45.3137 13.0027 46.0177 11.744C46.7431 10.4853 47.7244 9.504 48.9617 8.8C50.1991 8.096 51.6284 7.744 53.2497 7.744C55.2764 7.744 56.9831 8.27733 58.3697 9.344C59.7564 10.3893 60.6417 11.84 61.0257 13.696H56.7057C56.4924 12.928 56.0657 12.3307 55.4257 11.904C54.8071 11.456 54.0711 11.232 53.2177 11.232C52.0871 11.232 51.1271 11.6587 50.3377 12.512C49.5484 13.3653 49.1537 14.5493 49.1537 16.064C49.1537 17.5787 49.5484 18.7627 50.3377 19.616C51.1271 20.4693 52.0871 20.896 53.2177 20.896C54.0711 20.896 54.8071 20.6827 55.4257 20.256C56.0657 19.8293 56.4924 19.2213 56.7057 18.432H61.0257C60.6417 20.224 59.7564 21.664 58.3697 22.752C56.9831 23.84 55.2764 24.384 53.2497 24.384ZM63.9612 24V0.959999H68.0572V10.56C68.5906 9.68533 69.3052 9.00267 70.2012 8.512C71.1186 8 72.1639 7.744 73.3372 7.744C75.2999 7.744 76.8146 8.36267 77.8812 9.6C78.9692 10.8373 79.5132 12.6507 79.5132 15.04V24H75.4492V15.424C75.4492 14.0587 75.1719 13.0133 74.6172 12.288C74.0839 11.5627 73.2306 11.2 72.0572 11.2C70.9052 11.2 69.9452 11.6053 69.1772 12.416C68.4306 13.2267 68.0572 14.3573 68.0572 15.808V24H63.9612ZM84.938 5.664C84.1913 5.664 83.5727 5.44 83.082 4.992C82.6127 4.544 82.378 3.97867 82.378 3.296C82.378 2.61333 82.6127 2.05867 83.082 1.632C83.5727 1.184 84.1913 0.959999 84.938 0.959999C85.6847 0.959999 86.2927 1.184 86.762 1.632C87.2527 2.05867 87.498 2.61333 87.498 3.296C87.498 3.97867 87.2527 4.544 86.762 4.992C86.2927 5.44 85.6847 5.664 84.938 5.664ZM82.89 24V8.128H86.986V24H82.89ZM90.5612 24V8.128H94.1772L94.4972 10.816C94.9879 9.87733 95.6919 9.13067 96.6092 8.576C97.5479 8.02133 98.6466 7.744 99.9052 7.744C101.868 7.744 103.393 8.36267 104.481 9.6C105.569 10.8373 106.113 12.6507 106.113 15.04V24H102.017V15.424C102.017 14.0587 101.74 13.0133 101.185 12.288C100.631 11.5627 99.7666 11.2 98.5932 11.2C97.4412 11.2 96.4919 11.6053 95.7452 12.416C95.0199 13.2267 94.6572 14.3573 94.6572 15.808V24H90.5612ZM114.802 24.384C113.437 24.384 112.317 24.1707 111.442 23.744C110.567 23.296 109.917 22.7093 109.49 21.984C109.063 21.2587 108.85 20.4587 108.85 19.584C108.85 18.112 109.426 16.9173 110.578 16C111.73 15.0827 113.458 14.624 115.762 14.624H119.794V14.24C119.794 13.152 119.485 12.352 118.866 11.84C118.247 11.328 117.479 11.072 116.562 11.072C115.73 11.072 115.005 11.2747 114.386 11.68C113.767 12.064 113.383 12.64 113.234 13.408H109.234C109.341 12.256 109.725 11.2533 110.386 10.4C111.069 9.54667 111.943 8.896 113.01 8.448C114.077 7.97867 115.271 7.744 116.594 7.744C118.855 7.744 120.637 8.30933 121.938 9.44C123.239 10.5707 123.89 12.1707 123.89 14.24V24H120.402L120.018 21.44C119.549 22.2933 118.887 22.9973 118.034 23.552C117.202 24.1067 116.125 24.384 114.802 24.384ZM115.73 21.184C116.903 21.184 117.81 20.8 118.45 20.032C119.111 19.264 119.527 18.3147 119.698 17.184H116.21C115.122 17.184 114.343 17.3867 113.874 17.792C113.405 18.176 113.17 18.656 113.17 19.232C113.17 19.8507 113.405 20.3307 113.874 20.672C114.343 21.0133 114.962 21.184 115.73 21.184ZM139.336 24V4.896H132.808V1.6H149.992V4.896H143.432V24H139.336ZM154.438 5.664C153.691 5.664 153.073 5.44 152.582 4.992C152.113 4.544 151.878 3.97867 151.878 3.296C151.878 2.61333 152.113 2.05867 152.582 1.632C153.073 1.184 153.691 0.959999 154.438 0.959999C155.185 0.959999 155.793 1.184 156.262 1.632C156.753 2.05867 156.998 2.61333 156.998 3.296C156.998 3.97867 156.753 4.544 156.262 4.992C155.793 5.44 155.185 5.664 154.438 5.664ZM152.39 24V8.128H156.486V24H152.39ZM160.061 24V8.128H163.709L164.093 11.104C164.669 10.08 165.448 9.26933 166.429 8.672C167.432 8.05333 168.605 7.744 169.949 7.744V12.064H168.797C167.901 12.064 167.101 12.2027 166.397 12.48C165.693 12.7573 165.139 13.2373 164.733 13.92C164.349 14.6027 164.157 15.552 164.157 16.768V24H160.061ZM179.48 24.384C177.88 24.384 176.461 24.0427 175.224 23.36C173.986 22.6773 173.016 21.7173 172.312 20.48C171.608 19.2427 171.256 17.8133 171.256 16.192C171.256 14.5493 171.597 13.088 172.28 11.808C172.984 10.528 173.944 9.536 175.16 8.832C176.397 8.10667 177.848 7.744 179.512 7.744C181.069 7.744 182.445 8.08533 183.64 8.768C184.834 9.45067 185.762 10.3893 186.424 11.584C187.106 12.7573 187.448 14.0693 187.448 15.52C187.448 15.7547 187.437 16 187.416 16.256C187.416 16.512 187.405 16.7787 187.384 17.056H175.32C175.405 18.2933 175.832 19.264 176.6 19.968C177.389 20.672 178.338 21.024 179.448 21.024C180.28 21.024 180.973 20.8427 181.528 20.48C182.104 20.096 182.53 19.6053 182.808 19.008H186.968C186.669 20.0107 186.168 20.928 185.464 21.76C184.781 22.5707 183.928 23.2107 182.904 23.68C181.901 24.1493 180.76 24.384 179.48 24.384ZM179.512 11.072C178.509 11.072 177.624 11.36 176.856 11.936C176.088 12.4907 175.597 13.344 175.384 14.496H183.288C183.224 13.4507 182.84 12.6187 182.136 12C181.432 11.3813 180.557 11.072 179.512 11.072ZM196.753 24.384C195.345 24.384 194.107 24.16 193.041 23.712C191.974 23.2427 191.121 22.6027 190.481 21.792C189.841 20.9813 189.457 20.0427 189.329 18.976H193.457C193.585 19.5947 193.926 20.128 194.481 20.576C195.057 21.0027 195.793 21.216 196.689 21.216C197.585 21.216 198.235 21.0347 198.641 20.672C199.067 20.3093 199.281 19.8933 199.281 19.424C199.281 18.7413 198.982 18.2827 198.385 18.048C197.787 17.792 196.955 17.5467 195.889 17.312C195.206 17.1627 194.513 16.9813 193.809 16.768C193.105 16.5547 192.454 16.288 191.857 15.968C191.281 15.6267 190.811 15.2 190.449 14.688C190.086 14.1547 189.905 13.504 189.905 12.736C189.905 11.328 190.459 10.144 191.569 9.184C192.699 8.224 194.278 7.744 196.305 7.744C198.182 7.744 199.675 8.18133 200.785 9.056C201.915 9.93067 202.587 11.136 202.801 12.672H198.929C198.694 11.4987 197.809 10.912 196.273 10.912C195.505 10.912 194.907 11.0613 194.481 11.36C194.075 11.6587 193.873 12.032 193.873 12.48C193.873 12.9493 194.182 13.3227 194.801 13.6C195.419 13.8773 196.241 14.1333 197.265 14.368C198.374 14.624 199.387 14.912 200.305 15.232C201.243 15.5307 201.99 15.9893 202.545 16.608C203.099 17.2053 203.377 18.0693 203.377 19.2C203.398 20.1813 203.142 21.0667 202.609 21.856C202.075 22.6453 201.307 23.264 200.305 23.712C199.302 24.16 198.118 24.384 196.753 24.384Z" fill="white"/>
</svg>
