<svg width="50" height="50" viewBox="0 0 50 50" fill="none" xmlns="http://www.w3.org/2000/svg">
<mask id="mask0" mask-type="alpha" maskUnits="userSpaceOnUse" x="15" y="16" width="21" height="17">
<path fill-rule="evenodd" clip-rule="evenodd" d="M23.5509 16.1111L24.2749 17.3462C24.2749 17.3462 20.9423 20.4855 21.6074 23.3016C23.3962 23.9464 24.6737 25.6079 24.6738 27.5614C24.6738 30.0733 22.5646 32.1111 19.9639 32.1111C17.6718 32.1111 15.7637 30.5278 15.3412 28.4331C15.2266 27.8072 15.0962 26.9204 15.4716 25.9159C16.7923 22.3738 19.0287 19.5121 21.883 17.2089C22.3071 16.8659 23.5509 16.1111 23.5509 16.1111ZM34.5442 16.1111L35.2682 17.3462C35.2682 17.3462 31.9356 20.4855 32.6007 23.3016C34.3894 23.9464 35.667 25.6079 35.6671 27.5614C35.6671 30.0733 33.5579 32.1111 30.9572 32.1111C28.6651 32.1111 26.757 30.5278 26.3345 28.4331C26.2199 27.8072 26.0895 26.9204 26.4649 25.9159C27.7856 22.3738 30.022 19.5121 32.8763 17.2089C33.3004 16.8659 34.5442 16.1111 34.5442 16.1111Z" fill="black"/>
</mask>
<g mask="url(#mask0)">
<rect width="50" height="50" fill="white"/>
</g>
</svg>
