<svg width="96" height="96" viewBox="0 0 96 96" fill="none" xmlns="http://www.w3.org/2000/svg">
<path opacity="0.1" fill-rule="evenodd" clip-rule="evenodd" d="M48 96C74.5097 96 96 74.5097 96 48C96 21.4903 74.5097 0 48 0C21.4903 0 0 21.4903 0 48C0 74.5097 21.4903 96 48 96Z" fill="#F04037"/>
<path d="M60.7977 46.752C60.4737 46.5067 60.055 46.4227 59.659 46.5227C59.2777 46.6214 58.963 46.6667 58.667 46.6667C56.4617 46.6667 54.667 44.872 54.663 42.7507C54.6697 42.7054 54.6843 42.5694 54.6857 42.524C54.703 42.1014 54.5177 41.696 54.1883 41.432C53.8577 41.1667 53.4217 41.0707 53.0137 41.1827C52.623 41.2854 52.3017 41.3334 52.0003 41.3334C49.795 41.3334 48.0003 39.5387 48.0003 37.3334C48.0003 37.044 48.0417 36.7414 48.1323 36.3787C48.2363 35.9587 48.1297 35.5147 47.847 35.1867C47.5657 34.86 47.1563 34.6947 46.7097 34.7307C39.8443 35.392 34.667 41.096 34.667 48C34.667 55.352 40.6483 61.3334 48.0003 61.3334C55.3523 61.3334 61.3337 55.352 61.3337 48C61.3337 47.9347 61.3297 47.8707 61.3243 47.7867C61.315 47.38 61.1217 46.9987 60.7977 46.752ZM48.0003 58.6667C42.119 58.6667 37.3337 53.8814 37.3337 48C37.3337 43.036 40.679 38.848 45.3417 37.6667C45.5163 41.1894 48.4363 44 52.0003 44C52.0443 44 52.0883 44 52.135 43.9987C52.7483 47.012 55.4003 49.2934 58.5843 49.332C57.9257 54.588 53.431 58.6667 48.0003 58.6667Z" fill="#F04037"/>
<path d="M48.667 49.3333C49.7716 49.3333 50.667 48.4378 50.667 47.3333C50.667 46.2287 49.7716 45.3333 48.667 45.3333C47.5624 45.3333 46.667 46.2287 46.667 47.3333C46.667 48.4378 47.5624 49.3333 48.667 49.3333Z" fill="#F04037"/>
<path d="M43.333 45.3333C44.4376 45.3333 45.333 44.4378 45.333 43.3333C45.333 42.2287 44.4376 41.3333 43.333 41.3333C42.2284 41.3333 41.333 42.2287 41.333 43.3333C41.333 44.4378 42.2284 45.3333 43.333 45.3333Z" fill="#F04037"/>
<path d="M42 50.6667C43.1046 50.6667 44 49.7713 44 48.6667C44 47.5622 43.1046 46.6667 42 46.6667C40.8954 46.6667 40 47.5622 40 48.6667C40 49.7713 40.8954 50.6667 42 50.6667Z" fill="#F04037"/>
<path d="M52.667 54.6667C53.7716 54.6667 54.667 53.7713 54.667 52.6667C54.667 51.5622 53.7716 50.6667 52.667 50.6667C51.5624 50.6667 50.667 51.5622 50.667 52.6667C50.667 53.7713 51.5624 54.6667 52.667 54.6667Z" fill="#F04037"/>
<path d="M46 56C47.1046 56 48 55.1046 48 54C48 52.8954 47.1046 52 46 52C44.8954 52 44 52.8954 44 54C44 55.1046 44.8954 56 46 56Z" fill="#F04037"/>
</svg>
