<svg width="96" height="96" viewBox="0 0 96 96" fill="none" xmlns="http://www.w3.org/2000/svg">
<path fill-rule="evenodd" clip-rule="evenodd" d="M48 96C74.5097 96 96 74.5097 96 48C96 21.4903 74.5097 0 48 0C21.4903 0 0 21.4903 0 48C0 74.5097 21.4903 96 48 96Z" fill="#5454D4" fill-opacity="0.1"/>
<path fill-rule="evenodd" clip-rule="evenodd" d="M48 62.6667C39.8999 62.6667 33.3334 56.1002 33.3334 48C33.3334 39.8999 39.8999 33.3334 48 33.3334C56.1002 33.3334 62.6667 39.8999 62.6667 48C62.6667 56.1002 56.1002 62.6667 48 62.6667ZM48 60C54.6275 60 60 54.6275 60 48C60 41.3726 54.6275 36 48 36C41.3726 36 36 41.3726 36 48C36 54.6275 41.3726 60 48 60ZM48 41.3334V38.6667C53.1547 38.6667 57.3334 42.8454 57.3334 48H54.6667C54.6667 44.3181 51.6819 41.3334 48 41.3334ZM48 52C45.7909 52 44 50.2092 44 48C44 45.7909 45.7909 44 48 44C50.2092 44 52 45.7909 52 48C52 50.2092 50.2092 52 48 52ZM48 49.3334C48.7364 49.3334 49.3334 48.7364 49.3334 48C49.3334 47.2637 48.7364 46.6667 48 46.6667C47.2637 46.6667 46.6667 47.2637 46.6667 48C46.6667 48.7364 47.2637 49.3334 48 49.3334Z" fill="#0CCEF8"/>
</svg>
