<svg width="96" height="96" viewBox="0 0 96 96" fill="none" xmlns="http://www.w3.org/2000/svg">
<path opacity="0.1" fill-rule="evenodd" clip-rule="evenodd" d="M48 96C74.5097 96 96 74.5097 96 48C96 21.4903 74.5097 0 48 0C21.4903 0 0 21.4903 0 48C0 74.5097 21.4903 96 48 96Z" fill="#F04037"/>
<path fill-rule="evenodd" clip-rule="evenodd" d="M49.4702 35.5948C50.8966 34.8966 52.1408 34.6667 54.071 34.6667C59.0106 34.6872 62.6667 38.8531 62.6667 44.1599C62.6667 48.2104 60.4083 52.1231 56.2016 55.9065C53.9935 57.8925 51.1743 59.8578 49.1552 60.9033L48 61.5015L46.8448 60.9033C44.8258 59.8578 42.0066 57.8925 39.7985 55.9065C35.5918 52.1231 33.3334 48.2104 33.3334 44.1599C33.3334 38.7964 36.9553 34.6667 41.9394 34.6667C43.8004 34.6667 45.1085 34.9184 46.5625 35.6375C47.0687 35.8879 47.5443 36.1849 47.9867 36.5277C48.4468 36.1645 48.9422 35.8533 49.4702 35.5948ZM54.4183 53.9238C58.1149 50.5991 60 47.3332 60 44.1599C60 40.252 57.451 37.3474 54.0655 37.3334C52.516 37.3334 51.6612 37.4913 50.6426 37.9899C50.0161 38.2966 49.4602 38.7106 48.9753 39.2368L48.0032 40.2916L47.0221 39.245C46.5479 38.7392 46 38.3344 45.3802 38.0278C44.3309 37.5088 43.4191 37.3334 41.9394 37.3334C38.5116 37.3334 36 40.197 36 44.1599C36 47.3332 37.8851 50.5991 41.5817 53.9238C43.5971 55.7365 46.1881 57.5479 48 58.4983C49.812 57.5479 52.4029 55.7365 54.4183 53.9238Z" fill="#F04037"/>
</svg>
