<svg width="96" height="96" viewBox="0 0 96 96" fill="none" xmlns="http://www.w3.org/2000/svg">
<path fill-rule="evenodd" clip-rule="evenodd" d="M48 96C74.5097 96 96 74.5097 96 48C96 21.4903 74.5097 0 48 0C21.4903 0 0 21.4903 0 48C0 74.5097 21.4903 96 48 96Z" fill="#5454D4" fill-opacity="0.1"/>
<path fill-rule="evenodd" clip-rule="evenodd" d="M41.3333 33.3334H54.6666C56.1394 33.3334 57.3333 34.5273 57.3333 36V60C57.3333 61.4728 56.1394 62.6667 54.6666 62.6667H41.3333C39.8605 62.6667 38.6666 61.4728 38.6666 60V36C38.6666 34.5273 39.8605 33.3334 41.3333 33.3334ZM45.3333 36H41.3333V60H54.6666V36H50.6666C50.6666 36.7364 50.0697 37.3334 49.3333 37.3334H46.6666C45.9302 37.3334 45.3333 36.7364 45.3333 36Z" fill="#0CCEF8"/>
</svg>
