<svg width="24" height="24" viewBox="0 0 24 24" fill="none" xmlns="http://www.w3.org/2000/svg">
<path fill-rule="evenodd" clip-rule="evenodd" d="M5.68555 14.8034C6.09614 15.3656 6.55352 15.9373 7.05748 16.519C5.19525 16.9384 4 17.5337 4 18C4 18.807 7.57914 20 12 20C16.4209 20 20 18.807 20 18C20 17.5337 18.8047 16.9384 16.9425 16.519C17.4465 15.9373 17.9039 15.3656 18.3144 14.8034C20.5633 15.4858 22 16.5804 22 18C22 20.5068 17.5203 22 12 22C6.47973 22 2 20.5068 2 18C2 16.5804 3.43674 15.4858 5.68555 14.8034ZM13.0962 18.2554L12 19.2126L10.9038 18.2554C6.98842 14.8366 5 11.8112 5 9C5 5.02141 8.10349 2 12 2C15.8965 2 19 5.02141 19 9C19 11.8112 17.0116 14.8366 13.0962 18.2554ZM17 9C17 6.13816 14.8038 4 12 4C9.19624 4 7 6.13816 7 9C7 11.047 8.62733 13.5659 12 16.556C15.3727 13.5659 17 11.047 17 9ZM12 6C13.6569 6 15 7.34315 15 9C15 10.6569 13.6569 12 12 12C10.3431 12 9 10.6569 9 9C9 7.34315 10.3431 6 12 6ZM12 8C11.4477 8 11 8.44772 11 9C11 9.55228 11.4477 10 12 10C12.5523 10 13 9.55228 13 9C13 8.44772 12.5523 8 12 8Z" fill="white"/>
</svg>
