<svg width="96" height="96" viewBox="0 0 96 96" fill="none" xmlns="http://www.w3.org/2000/svg">
<path fill-rule="evenodd" clip-rule="evenodd" d="M48 96C74.5097 96 96 74.5097 96 48C96 21.4903 74.5097 0 48 0C21.4903 0 0 21.4903 0 48C0 74.5097 21.4903 96 48 96Z" fill="#5454D4" fill-opacity="0.1"/>
<path fill-rule="evenodd" clip-rule="evenodd" d="M47.9999 62.6667C39.8997 62.6667 33.3333 56.1002 33.3333 48C33.3333 39.8999 39.8997 33.3334 47.9999 33.3334C56.1001 33.3334 62.6666 39.8999 62.6666 48C62.6666 56.1002 56.1001 62.6667 47.9999 62.6667ZM47.9999 60C54.6273 60 59.9999 54.6275 59.9999 48C59.9999 41.3726 54.6273 36 47.9999 36C41.3725 36 35.9999 41.3726 35.9999 48C35.9999 54.6275 41.3725 60 47.9999 60ZM52.3661 51.0638L54.5473 52.5979C53.0593 54.7136 50.6367 56 47.9999 56C45.3632 56 42.9405 54.7136 41.4525 52.5979L43.6337 51.0638C44.6275 52.4768 46.2406 53.3334 47.9999 53.3334C49.7593 53.3334 51.3723 52.4768 52.3661 51.0638ZM50.6666 46.6667V44H53.3333V46.6667H50.6666ZM42.6666 46.6667V44H45.3333V46.6667H42.6666Z" fill="#0CCEF8"/>
</svg>
