<svg width="96" height="96" viewBox="0 0 96 96" fill="none" xmlns="http://www.w3.org/2000/svg">
<path opacity="0.1" fill-rule="evenodd" clip-rule="evenodd" d="M48 96C74.5097 96 96 74.5097 96 48C96 21.4903 74.5097 0 48 0C21.4903 0 0 21.4903 0 48C0 74.5097 21.4903 96 48 96Z" fill="#F04037"/>
<path fill-rule="evenodd" clip-rule="evenodd" d="M48 57.5064L38.392 62.5576L40.227 51.859L32.454 44.2822L43.196 42.7212L48 32.9873L52.804 42.7212L63.546 44.2822L55.773 51.859L57.608 62.5576L48 57.5064ZM48 54.4937L54.0663 57.6829L52.9077 50.928L57.8155 46.1441L51.0332 45.1586L48 39.0128L44.9669 45.1586L38.1845 46.1441L43.0923 50.928L41.9337 57.6829L48 54.4937Z" fill="#F04037"/>
</svg>
