<svg width="96" height="96" viewBox="0 0 96 96" fill="none" xmlns="http://www.w3.org/2000/svg">
<path opacity="0.1" fill-rule="evenodd" clip-rule="evenodd" d="M48 96C74.5097 96 96 74.5097 96 48C96 21.4903 74.5097 0 48 0C21.4903 0 0 21.4903 0 48C0 74.5097 21.4903 96 48 96Z" fill="#F04037"/>
<path fill-rule="evenodd" clip-rule="evenodd" d="M52 36.5522V41.3333H56.781L52 36.5522ZM57.3333 43.9999H52C50.5272 43.9999 49.3333 42.806 49.3333 41.3333V35.9999H38.6667V59.9999H57.3333V43.9999ZM38.6667 33.3333H52.5523L60 40.781V59.9999C60 61.4727 58.8061 62.6666 57.3333 62.6666H38.6667C37.1939 62.6666 36 61.4727 36 59.9999V35.9999C36 34.5272 37.1939 33.3333 38.6667 33.3333ZM42.6667 54.6666V51.9999H50.6667V54.6666H42.6667ZM42.6667 49.3333V46.6666H53.3333V49.3333H42.6667Z" fill="#F04037"/>
</svg>
